<mxfile host="app.diagrams.net" modified="2023-10-09T11:57:24.767Z" agent="Mozilla/5.0 (Windows NT 10.0; Win64; x64) AppleWebKit/537.36 (KHTML, like Gecko) Chrome/116.0.0.0 Safari/537.36 OPR/102.0.0.0" etag="VeFg2itPFBsvC2ZL-tOI" version="22.0.4" type="github">
  <diagram name="Page-1" id="X9__ufa-HlzCAfTMQ26X">
    <mxGraphModel dx="1393" dy="797" grid="1" gridSize="10" guides="1" tooltips="1" connect="1" arrows="1" fold="1" page="1" pageScale="1" pageWidth="850" pageHeight="1100" math="0" shadow="0">
      <root>
        <mxCell id="0" />
        <mxCell id="1" parent="0" />
        <mxCell id="27lWaD0z2bfQaNTDWp5t-33" value="Sporta paveids" style="rounded=1;whiteSpace=wrap;html=1;labelBackgroundColor=none;fillColor=#F08E81;strokeColor=#FFFFFF;fontColor=#1A1A1A;" vertex="1" parent="1">
          <mxGeometry x="190" y="560" width="120" height="60" as="geometry" />
        </mxCell>
        <mxCell id="27lWaD0z2bfQaNTDWp5t-38" style="edgeStyle=orthogonalEdgeStyle;rounded=1;orthogonalLoop=1;jettySize=auto;html=1;exitX=1;exitY=0.5;exitDx=0;exitDy=0;entryX=0;entryY=0.5;entryDx=0;entryDy=0;labelBackgroundColor=none;strokeColor=#182E3E;fontColor=default;" edge="1" parent="1" source="27lWaD0z2bfQaNTDWp5t-35" target="27lWaD0z2bfQaNTDWp5t-37">
          <mxGeometry relative="1" as="geometry" />
        </mxCell>
        <mxCell id="27lWaD0z2bfQaNTDWp5t-53" style="edgeStyle=orthogonalEdgeStyle;rounded=1;orthogonalLoop=1;jettySize=auto;html=1;exitX=1;exitY=1;exitDx=0;exitDy=0;strokeColor=#182E3E;fontColor=#1A1A1A;" edge="1" parent="1" source="27lWaD0z2bfQaNTDWp5t-35" target="27lWaD0z2bfQaNTDWp5t-49">
          <mxGeometry relative="1" as="geometry" />
        </mxCell>
        <mxCell id="27lWaD0z2bfQaNTDWp5t-35" value="Nodarbība" style="ellipse;whiteSpace=wrap;html=1;aspect=fixed;labelBackgroundColor=none;fillColor=#F08E81;strokeColor=#FFFFFF;fontColor=#1A1A1A;rounded=1;" vertex="1" parent="1">
          <mxGeometry x="335" y="620" width="130" height="130" as="geometry" />
        </mxCell>
        <mxCell id="27lWaD0z2bfQaNTDWp5t-36" style="edgeStyle=orthogonalEdgeStyle;rounded=1;orthogonalLoop=1;jettySize=auto;html=1;exitX=0.5;exitY=1;exitDx=0;exitDy=0;entryX=0.338;entryY=-0.008;entryDx=0;entryDy=0;entryPerimeter=0;labelBackgroundColor=none;strokeColor=#182E3E;fontColor=default;" edge="1" parent="1" source="27lWaD0z2bfQaNTDWp5t-33" target="27lWaD0z2bfQaNTDWp5t-35">
          <mxGeometry relative="1" as="geometry">
            <mxPoint x="380" y="610" as="targetPoint" />
          </mxGeometry>
        </mxCell>
        <mxCell id="27lWaD0z2bfQaNTDWp5t-37" value="Grūtības pakāpe" style="rounded=1;whiteSpace=wrap;html=1;labelBackgroundColor=none;fillColor=#F08E81;strokeColor=#FFFFFF;fontColor=#1A1A1A;" vertex="1" parent="1">
          <mxGeometry x="670" y="640" width="70" height="60" as="geometry" />
        </mxCell>
        <mxCell id="27lWaD0z2bfQaNTDWp5t-41" style="edgeStyle=orthogonalEdgeStyle;rounded=1;orthogonalLoop=1;jettySize=auto;html=1;entryX=0;entryY=0.5;entryDx=0;entryDy=0;strokeColor=#182E3E;fontColor=default;labelBackgroundColor=none;" edge="1" parent="1" source="27lWaD0z2bfQaNTDWp5t-40" target="27lWaD0z2bfQaNTDWp5t-35">
          <mxGeometry relative="1" as="geometry" />
        </mxCell>
        <mxCell id="27lWaD0z2bfQaNTDWp5t-40" value="pasniedzējs" style="ellipse;whiteSpace=wrap;html=1;aspect=fixed;strokeColor=#FFFFFF;fontColor=#1A1A1A;fillColor=#F08E81;rounded=1;labelBackgroundColor=none;" vertex="1" parent="1">
          <mxGeometry x="70" y="690" width="80" height="80" as="geometry" />
        </mxCell>
        <mxCell id="27lWaD0z2bfQaNTDWp5t-42" value="n:1" style="text;html=1;strokeColor=none;fillColor=none;align=center;verticalAlign=middle;whiteSpace=wrap;rounded=1;fontColor=#1A1A1A;" vertex="1" parent="1">
          <mxGeometry x="500" y="660" width="60" height="30" as="geometry" />
        </mxCell>
        <mxCell id="27lWaD0z2bfQaNTDWp5t-43" value="n:m" style="text;html=1;strokeColor=none;fillColor=none;align=center;verticalAlign=middle;whiteSpace=wrap;rounded=1;fontColor=#1A1A1A;" vertex="1" parent="1">
          <mxGeometry x="170" y="700" width="60" height="30" as="geometry" />
        </mxCell>
        <mxCell id="27lWaD0z2bfQaNTDWp5t-47" style="edgeStyle=orthogonalEdgeStyle;rounded=1;orthogonalLoop=1;jettySize=auto;html=1;strokeColor=#182E3E;fontColor=#1A1A1A;" edge="1" parent="1" source="27lWaD0z2bfQaNTDWp5t-44" target="27lWaD0z2bfQaNTDWp5t-40">
          <mxGeometry relative="1" as="geometry" />
        </mxCell>
        <mxCell id="27lWaD0z2bfQaNTDWp5t-44" value="Vards" style="rounded=1;whiteSpace=wrap;html=1;strokeColor=#FFFFFF;fontColor=#1A1A1A;fillColor=#F08E81;" vertex="1" parent="1">
          <mxGeometry x="85" y="610" width="50" height="40" as="geometry" />
        </mxCell>
        <mxCell id="27lWaD0z2bfQaNTDWp5t-46" style="edgeStyle=orthogonalEdgeStyle;rounded=1;orthogonalLoop=1;jettySize=auto;html=1;entryX=0.5;entryY=1;entryDx=0;entryDy=0;strokeColor=#182E3E;fontColor=#1A1A1A;" edge="1" parent="1" source="27lWaD0z2bfQaNTDWp5t-45" target="27lWaD0z2bfQaNTDWp5t-40">
          <mxGeometry relative="1" as="geometry" />
        </mxCell>
        <mxCell id="27lWaD0z2bfQaNTDWp5t-45" value="Uzvards" style="rounded=1;whiteSpace=wrap;html=1;strokeColor=#FFFFFF;fontColor=#1A1A1A;fillColor=#F08E81;" vertex="1" parent="1">
          <mxGeometry x="7.5" y="780" width="52.5" height="50" as="geometry" />
        </mxCell>
        <mxCell id="27lWaD0z2bfQaNTDWp5t-51" style="edgeStyle=orthogonalEdgeStyle;rounded=1;orthogonalLoop=1;jettySize=auto;html=1;exitX=1;exitY=0.5;exitDx=0;exitDy=0;entryX=0.5;entryY=1;entryDx=0;entryDy=0;strokeColor=#182E3E;fontColor=#1A1A1A;" edge="1" parent="1" source="27lWaD0z2bfQaNTDWp5t-48" target="27lWaD0z2bfQaNTDWp5t-49">
          <mxGeometry relative="1" as="geometry" />
        </mxCell>
        <mxCell id="27lWaD0z2bfQaNTDWp5t-48" value="Grafiks" style="ellipse;whiteSpace=wrap;html=1;rounded=1;strokeColor=#FFFFFF;fontColor=#1A1A1A;fillColor=#F08E81;" vertex="1" parent="1">
          <mxGeometry x="420" y="870" width="90" height="60" as="geometry" />
        </mxCell>
        <mxCell id="27lWaD0z2bfQaNTDWp5t-52" style="edgeStyle=orthogonalEdgeStyle;rounded=1;orthogonalLoop=1;jettySize=auto;html=1;exitX=1;exitY=0.5;exitDx=0;exitDy=0;strokeColor=#182E3E;fontColor=#1A1A1A;" edge="1" parent="1" source="27lWaD0z2bfQaNTDWp5t-49" target="27lWaD0z2bfQaNTDWp5t-50">
          <mxGeometry relative="1" as="geometry" />
        </mxCell>
        <mxCell id="27lWaD0z2bfQaNTDWp5t-49" value="time slot(konkretas dienas, konkrets laiks)" style="shape=parallelogram;perimeter=parallelogramPerimeter;whiteSpace=wrap;html=1;fixedSize=1;rounded=1;strokeColor=#FFFFFF;fontColor=#1A1A1A;fillColor=#F08E81;" vertex="1" parent="1">
          <mxGeometry x="430" y="790" width="190" height="70" as="geometry" />
        </mxCell>
        <mxCell id="27lWaD0z2bfQaNTDWp5t-50" value="zales&lt;br&gt;nr" style="shape=trapezoid;perimeter=trapezoidPerimeter;whiteSpace=wrap;html=1;fixedSize=1;rounded=1;strokeColor=#FFFFFF;fontColor=#1A1A1A;fillColor=#F08E81;" vertex="1" parent="1">
          <mxGeometry x="660" y="740" width="80" height="50" as="geometry" />
        </mxCell>
      </root>
    </mxGraphModel>
  </diagram>
</mxfile>
